<?xml version="1.0" standalone="no"?>
<!DOCTYPE svg PUBLIC "-//W3C//DTD SVG 20010904//EN"
 "http://www.w3.org/TR/2001/REC-SVG-20010904/DTD/svg10.dtd">
<svg version="1.0" xmlns="http://www.w3.org/2000/svg"
 width="236.000000pt" height="236.000000pt" viewBox="0 0 236.000000 236.000000"
 preserveAspectRatio="xMidYMid meet">
<metadata>
Created by potrace 1.15, written by Peter Selinger 2001-2017
</metadata>
<g transform="translate(0.000000,236.000000) scale(0.100000,-0.100000)"
fill="#000000" stroke="none">
<path d="M0 1180 l0 -1180 1180 0 1180 0 0 1180 0 1180 -1180 0 -1180 0 0
-1180z m1578 894 c30 -21 47 -55 108 -224 69 -190 247 -676 371 -1015 157
-426 163 -452 121 -498 -24 -25 -128 -67 -167 -67 -12 0 -37 15 -56 33 -28 26
-45 62 -96 202 -88 245 -159 438 -224 615 -31 85 -88 240 -126 344 -37 104
-72 193 -77 198 -6 6 -162 -125 -398 -334 l-388 -343 463 -5 463 -5 24 -28
c22 -26 24 -37 24 -128 0 -98 -1 -101 -29 -130 l-29 -29 -677 0 -677 0 -29 29
c-28 29 -29 32 -29 136 0 66 5 118 14 138 9 22 150 153 448 417 l436 385 -419
3 -418 2 -30 31 c-30 30 -31 32 -31 131 0 97 1 100 29 129 l29 29 674 0 c594
0 676 -2 696 -16z"/>
</g>
</svg>
